<?xml version="1.0" encoding="utf-8"?>
<!-- Generator: Adobe Illustrator 18.1.1, SVG Export Plug-In . SVG Version: 6.00 Build 0)  -->
<!DOCTYPE svg PUBLIC "-//W3C//DTD SVG 1.1//EN" "http://www.w3.org/Graphics/SVG/1.1/DTD/svg11.dtd">
<svg version="1.1" id="Layer_1" xmlns="http://www.w3.org/2000/svg" xmlns:xlink="http://www.w3.org/1999/xlink" x="0px" y="0px"
	 viewBox="0 0 128 48" enable-background="new 0 0 128 48" xml:space="preserve">
<g>
	<path d="M119.231,17.033c-0.513-1.303-1.213-2.398-2.103-3.286c-0.889-0.887-1.934-1.563-3.136-2.027
		c-1.202-0.463-2.5-0.695-3.894-0.695c-1.795,0-3.505,0.376-5.131,1.127c-1.101,0.509-2.103,1.164-3.024,1.943l0.464-2.375
		c-0.657-0.303-1.322-0.455-1.994-0.455c-1.202,0-2.364,0.455-3.485,1.367c-1.122,0.911-2.163,2.215-3.124,3.909v-2.83
		c0-0.816-0.216-1.403-0.649-1.763c-0.432-0.36-1.033-0.54-1.802-0.54h-3.845l-0.608,4.998c-0.018-0.069-0.032-0.145-0.051-0.213
		c-0.345-1.191-0.826-2.17-1.442-2.938c-0.617-0.767-1.35-1.331-2.199-1.691c-0.85-0.36-1.787-0.54-2.812-0.54
		c-1.586,0-3.076,0.44-4.47,1.319c-1.394,0.88-2.66,2.087-3.797,3.621v-2.254c0-0.816-0.216-1.403-0.649-1.763
		c-0.432-0.36-1.033-0.54-1.803-0.54h-3.845l-0.657,5.445c-0.506-1.222-1.176-2.262-2.023-3.107
		c-0.889-0.887-1.935-1.563-3.137-2.027c-1.202-0.463-2.499-0.695-3.894-0.695c-1.794,0-3.505,0.376-5.131,1.127
		c-1.627,0.752-3.056,1.799-4.29,3.142c-0.801,0.872-1.484,1.861-2.073,2.946c-0.106-0.417-0.228-0.823-0.379-1.207
		c-0.513-1.303-1.214-2.398-2.103-3.286c-0.889-0.887-1.935-1.563-3.136-2.027c-1.202-0.463-2.499-0.695-3.894-0.695
		c-1.795,0-3.505,0.376-5.131,1.127c-1.626,0.752-3.056,1.799-4.29,3.142c-1.189,1.294-2.137,2.827-2.857,4.588
		c-0.295-0.532-0.623-1.028-1.025-1.446c-0.601-0.623-1.282-1.143-2.043-1.559c-0.761-0.416-1.538-0.783-2.331-1.103
		c-0.793-0.32-1.566-0.615-2.319-0.887c-0.753-0.272-1.43-0.571-2.031-0.899c-0.601-0.327-1.081-0.707-1.442-1.139
		c-0.361-0.432-0.541-0.967-0.541-1.607c0-0.591,0.092-1.135,0.276-1.631c0.184-0.495,0.461-0.927,0.829-1.295
		c0.369-0.368,0.829-0.656,1.382-0.864c0.553-0.207,1.198-0.312,1.935-0.312c0.801,0,1.498,0.12,2.091,0.36
		c0.593,0.24,1.118,0.504,1.574,0.791c0.457,0.288,0.869,0.552,1.238,0.791c0.369,0.24,0.737,0.36,1.106,0.36
		c0.385,0,0.717-0.088,0.997-0.264c0.28-0.176,0.557-0.456,0.829-0.839l2.355-3.214c-0.465-0.591-1.033-1.139-1.706-1.643
		c-0.673-0.504-1.418-0.939-2.235-1.307c-0.817-0.367-1.694-0.655-2.632-0.863C18.206,1.104,17.24,1,16.247,1
		c-1.939,0-3.685,0.328-5.239,0.983C9.453,2.639,8.131,3.518,7.042,4.621C5.952,5.725,5.115,6.992,4.53,8.423
		c-0.585,1.431-0.877,2.922-0.877,4.473c0,1.343,0.18,2.474,0.541,3.394c0.361,0.919,0.833,1.695,1.418,2.326
		c0.585,0.632,1.254,1.143,2.007,1.535c0.753,0.392,1.522,0.732,2.307,1.019c0.785,0.288,1.554,0.556,2.307,0.803
		c0.753,0.248,1.422,0.532,2.007,0.851c0.585,0.32,1.079,0.696,1.418,1.175c0.327,0.462,0.472,0.997,0.568,1.751
		c0.138,1.082-0.203,2.74-1.217,3.537c-1.08,0.849-1.919,1.187-3.377,1.187c-0.994,0-1.831-0.156-2.512-0.468
		c-0.681-0.312-1.278-0.655-1.791-1.031c-0.513-0.375-0.982-0.72-1.406-1.031c-0.425-0.312-0.862-0.468-1.31-0.468
		c-0.337,0-0.673,0.088-1.01,0.264c-0.337,0.176-0.609,0.4-0.817,0.672L0,32.059c0.561,0.688,1.242,1.311,2.043,1.871
		c0.801,0.56,1.67,1.043,2.608,1.451c0.937,0.408,1.915,0.724,2.932,0.947c1.017,0.224,2.031,0.336,3.04,0.336
		c2.035,0,3.865-0.34,5.492-1.019c1.626-0.679,3.008-1.599,4.146-2.758c0.795-0.81,1.453-1.722,1.99-2.724
		c0.054,0.164,0.1,0.335,0.161,0.493c0.505,1.303,1.202,2.398,2.091,3.286c0.889,0.887,1.939,1.563,3.148,2.027
		c1.21,0.464,2.511,0.695,3.905,0.695c1.794,0,3.505-0.38,5.131-1.139c1.626-0.759,3.056-1.814,4.29-3.166
		c0.796-0.871,1.475-1.857,2.061-2.935c0.106,0.426,0.227,0.841,0.379,1.232c0.505,1.303,1.202,2.398,2.091,3.286
		c0.889,0.887,1.938,1.563,3.148,2.027c1.21,0.464,2.512,0.695,3.905,0.695c1.794,0,3.505-0.38,5.131-1.139
		c1.626-0.759,3.056-1.814,4.29-3.166c0.581-0.636,1.101-1.332,1.57-2.078L61.536,47h7.359l1.355-12.183
		c0.625,0.56,1.346,1.007,2.163,1.343c0.817,0.336,1.746,0.503,2.788,0.503c1.602,0,3.137-0.435,4.603-1.307
		c1.466-0.871,2.76-2.051,3.882-3.538c0.632-0.838,1.183-1.758,1.67-2.746l-0.877,7.206h7.306l1.346-11.176
		c0.592-2.462,1.366-4.249,2.319-5.36c0.943-1.1,2.025-1.651,3.243-1.663c-0.353,0.633-0.681,1.291-0.96,1.998
		c-0.729,1.847-1.094,3.873-1.094,6.08c0,1.695,0.252,3.194,0.757,4.497c0.505,1.303,1.202,2.398,2.091,3.286
		c0.89,0.887,1.939,1.563,3.149,2.027c1.209,0.464,2.511,0.695,3.905,0.695c1.794,0,3.505-0.38,5.131-1.139
		c1.626-0.759,3.056-1.814,4.29-3.166c1.234-1.351,2.215-2.95,2.944-4.797c0.729-1.847,1.094-3.857,1.094-6.032
		C120,19.835,119.743,18.336,119.231,17.033z M37.192,25.283c-0.249,1.159-0.601,2.174-1.058,3.046
		c-0.457,0.872-1.013,1.559-1.67,2.063c-0.657,0.503-1.402,0.755-2.235,0.755c-1.105,0-1.903-0.396-2.391-1.187
		c-0.489-0.792-0.733-2.075-0.733-3.849c0-1.311,0.124-2.55,0.373-3.717c0.248-1.167,0.601-2.182,1.057-3.046
		c0.457-0.864,1.013-1.547,1.67-2.051c0.657-0.504,1.402-0.755,2.235-0.755c1.106,0,1.902,0.388,2.391,1.163
		c0.489,0.776,0.733,2.067,0.733,3.873C37.565,22.889,37.441,24.124,37.192,25.283z M58.198,25.283
		c-0.249,1.159-0.601,2.174-1.057,3.046c-0.457,0.872-1.014,1.559-1.67,2.063c-0.657,0.503-1.402,0.755-2.235,0.755
		c-1.106,0-1.903-0.396-2.391-1.187c-0.489-0.792-0.733-2.075-0.733-3.849c0-1.311,0.124-2.55,0.373-3.717
		c0.248-1.167,0.601-2.182,1.057-3.046c0.457-0.864,1.013-1.547,1.67-2.051c0.657-0.504,1.402-0.755,2.235-0.755
		c1.106,0,1.903,0.388,2.391,1.163c0.489,0.776,0.733,2.067,0.733,3.873C58.57,22.889,58.446,24.124,58.198,25.283z M79.516,24.863
		c-0.297,1.199-0.709,2.266-1.238,3.202c-0.529,0.935-1.158,1.691-1.887,2.266c-0.729,0.575-1.527,0.863-2.392,0.863
		c-0.513,0-1.054-0.08-1.622-0.24c-0.569-0.159-1.086-0.423-1.55-0.791l0.745-5.996c0.304-1.039,0.685-2.015,1.142-2.926
		c0.457-0.911,0.945-1.706,1.466-2.386c0.521-0.679,1.061-1.215,1.622-1.607c0.561-0.392,1.098-0.588,1.61-0.588
		c0.769,0,1.386,0.36,1.851,1.079c0.465,0.72,0.697,1.871,0.697,3.453C79.96,22.441,79.812,23.664,79.516,24.863z M112.177,25.283
		c-0.249,1.159-0.601,2.174-1.057,3.046c-0.457,0.872-1.014,1.559-1.67,2.063c-0.657,0.503-1.402,0.755-2.235,0.755
		c-1.106,0-1.903-0.396-2.391-1.187c-0.489-0.792-0.733-2.075-0.733-3.849c0-1.311,0.124-2.55,0.373-3.717
		c0.248-1.167,0.601-2.182,1.058-3.046c0.456-0.864,1.013-1.547,1.67-2.051c0.657-0.504,1.402-0.755,2.235-0.755
		c1.106,0,1.902,0.388,2.391,1.163c0.489,0.776,0.733,2.067,0.733,3.873C112.55,22.889,112.425,24.124,112.177,25.283z"/>
</g>
<g>
</g>
<g>
</g>
<g>
</g>
<g>
</g>
<g>
</g>
<g>
</g>
</svg>
